<?xml version="1.0" encoding="UTF-8"?>
<!-- Generator: Adobe Illustrator 23.0.6, SVG Export Plug-In . SVG Version: 6.00 Build 0)  -->
<svg version="1.1" id="Layer_1" xmlns="http://www.w3.org/2000/svg" xmlns:xlink="http://www.w3.org/1999/xlink" x="0px" y="0px" viewBox="0 0 536.6 121.58" style="enable-background:new 0 0 536.6 121.58;" xml:space="preserve">
<style type="text/css">
	.st0{fill:#941D55;}
	.st1{fill:#FFFFFF;}
</style>
<g>
	<path class="st0" d="M475.82,121.58H10.02c-5.52,0-10-4.48-10-10V10c0-5.52,4.48-10,10-10L474.9,0c33.36,0,61.2,26.49,61.71,59.84   C537.12,93.79,509.65,121.58,475.82,121.58z"/>
	<g>
		<path class="st1" d="M71.19,26.72v62.07h-7.97v-6.92c-3.1,4.97-8.15,7.8-14.87,7.8c-12.57,0-20.8-9.4-20.8-23.05    c0-13.57,8.23-23.05,20.8-23.05c6.73,0,11.77,2.84,14.87,7.8V26.72H71.19z M63.23,66.62c0-9.67-5.4-16.32-13.81-16.32    c-8.32,0-13.9,6.65-13.9,16.32c0,9.66,5.58,16.31,13.9,16.31C57.83,82.94,63.23,76.29,63.23,66.62z"/>
		<path class="st1" d="M79.69,66.62c0-13.57,9.3-23.05,22.31-23.05c12.93,0,22.22,9.49,22.22,23.05s-9.3,23.05-22.22,23.05    C88.98,89.68,79.69,80.19,79.69,66.62z M116.25,66.62c0-9.67-6.02-16.32-14.25-16.32c-8.32,0-14.34,6.65-14.34,16.32    c0,9.66,6.02,16.31,14.34,16.31C110.23,82.94,116.25,76.29,116.25,66.62z"/>
		<path class="st1" d="M130.06,66.62c0-13.57,9.38-23.05,22.22-23.05c9.38,0,16.02,5.23,18.68,13.83l-6.64,2.22    c-1.77-5.76-6.02-9.31-12.04-9.31c-8.15,0-14.25,6.56-14.25,16.32c0,9.66,6.11,16.31,14.25,16.31c6.2,0,10.8-3.55,12.84-9.13    l6.46,2.57c-3.01,8.16-10,13.3-19.39,13.3C139.53,89.68,130.06,80.28,130.06,66.62z"/>
		<path class="st1" d="M218.41,44.46v44.33h-7.97v-8.51c-3.1,6.12-8.32,9.4-15.14,9.4c-9.65,0-16.11-6.56-16.11-17.29V44.46h7.97    v27.13c0,6.92,3.72,11.35,10,11.35c7.7,0,13.28-6.65,13.28-19.15V44.46H218.41z"/>
		<path class="st1" d="M297.55,60.95v27.84h-7.97V61.66c0-6.92-3.36-11.35-9.47-11.35c-7.35,0-12.57,6.56-12.57,19.15v19.33h-7.97    V61.66c0-6.92-3.28-11.35-9.47-11.35c-7.35,0-12.57,6.56-12.57,19.15v19.33h-7.97V44.46h7.97v8.42c2.66-6.12,7.53-9.31,14.17-9.31    c6.99,0,12.13,3.37,14.52,9.49c3.1-6.12,8.32-9.49,15.23-9.49C291.44,43.57,297.55,50.13,297.55,60.95z"/>
		<path class="st1" d="M342.69,62.28v26.51h-7.44v-7.63c-2.74,5.41-7.53,8.51-13.99,8.51c-8.23,0-13.9-4.96-13.9-12.68    c0-7.09,4.6-11.44,15.58-13.48l11.77-2.22c-0.09-6.38-4.52-10.73-10.8-10.73s-10.71,4.26-11.86,10.02l-6.64-2.04    c1.68-8.6,8.94-14.99,18.86-14.99C335.08,43.57,342.69,51.11,342.69,62.28z M334.73,68.75v-1.33l-8.94,1.69    c-7.26,1.42-10.45,3.63-10.45,7.98c0,4.26,3.1,6.65,7.44,6.65C329.86,83.74,334.73,77.53,334.73,68.75z"/>
		<path class="st1" d="M350.3,76.73l6.2-2.13c1.24,5.32,5.84,8.78,12.04,8.78c5.75,0,9.38-2.84,9.38-6.92c0-3.1-2.04-5.14-6.37-5.76    l-8.23-1.33c-6.37-0.98-11.51-5.41-11.51-12.32c0-7.89,6.73-13.48,16.2-13.48c8.23,0,14.25,4.26,16.2,10.99l-6.11,2.13    c-1.06-4.26-4.78-7-9.92-7c-5.14,0-8.59,2.75-8.59,6.74c0,3.28,2.3,5.05,5.75,5.59l8.76,1.42c7.17,1.15,11.69,5.59,11.69,12.24    c0,8.42-7.08,14.01-17,14.01C359.33,89.68,352.34,84.53,350.3,76.73z"/>
		<path class="st1" d="M420.42,84.18c-2.12,3.46-5.67,5.5-10.36,5.5c-7.53,0-12.39-4.79-12.39-12.77V51.19h-7.17v-6.74h7.17v-9.93    l7.97-3.37v13.3h11.77v6.74h-11.77v25.89c0,3.72,1.95,5.94,5.31,5.94c2.04,0,3.54-0.98,4.43-2.48L420.42,84.18z"/>
		<path class="st1" d="M464.24,68.31h-33.64c0.35,9.67,6.99,14.81,14.61,14.81c5.93,0,10.54-3.28,13.01-8.07l5.67,3.37    c-3.54,6.65-10.18,11.26-18.95,11.26c-12.31,0-22.13-8.87-22.13-23.05c0-13.57,9.03-23.05,21.69-23.05    c12.39,0,19.92,9.22,19.92,22.08C464.41,66.54,464.33,67.87,464.24,68.31z M430.95,62.28h25.76c-0.44-7.18-5.22-12.33-12.4-12.33    C437.15,49.95,431.57,55.01,430.95,62.28z"/>
		<path class="st1" d="M498.58,45.34l-2.74,6.65c-0.97-0.62-2.39-0.98-3.98-0.98c-6.55,0-10.36,5.23-10.36,18.97v18.8h-7.97    l0.09-44.33h7.79v7.63c2.48-5.94,6.46-8.34,11.33-8.34C495.04,43.75,497.17,44.37,498.58,45.34z"/>
	</g>
</g>
</svg>